# xmcd
#
# Track frame offsets:
#	150
#	13005
#	26702
#	37878
#	51174
#	63547
#	77155
#	87991
#	99369
#	110052
#	120965
#	134219
#
# Disc length: 1928
#
# Revision: 2
# Processed by: cddbd v1.5.1PL0 Copyright (c) Steve Scherf et al.
# Submitted via: dBpowerAMP V4.0
# Normalized: r1:TSWAP
#
DISCID=9e07860c
DTITLE=Various Artist - Classic Country - Honky-Tonk Favorites
DYEAR=1900
DGENRE=Country
TTITLE0=Johnny Horton - North to Alaska
TTITLE1=Jimmy Dean - Big Bad John
TTITLE2=Stonewall Jackson - Waterloo
TTITLE3=Carl Butler and Pearl - Don't Let Me Cross Over
TTITLE4=Patsy Cline - Crazy
TTITLE5=Ray Price - City Lights
TTITLE6=Ferlin Husky - Gone
TTITLE7=Sonny James - Young Love
TTITLE8=Leroy Van Dyke - Walk on By
TTITLE9=George Jones - Tender Years
TTITLE10=Jerry Lee Lewis - You Win Again
TTITLE11=Ferlin Husky - Wings of a Dove
EXTD=
EXTT0=
EXTT1=
EXTT2=
EXTT3=
EXTT4=
EXTT5=
EXTT6=
EXTT7=
EXTT8=
EXTT9=
EXTT10=
EXTT11=
PLAYORDER=
